<?xml version="1.0" encoding="iso-8859-1"?>
<!-- Generator: Adobe Illustrator 19.0.0, SVG Export Plug-In . SVG Version: 6.00 Build 0)  -->
<svg version="1.1" id="Layer_1" xmlns="http://www.w3.org/2000/svg" xmlns:xlink="http://www.w3.org/1999/xlink" x="0px" y="0px"
	 viewBox="0 0 512 512" style="enable-background:new 0 0 512 512;" xml:space="preserve">
<path style="fill:#FEF5CC;" d="M509.123,376.139c0,4.435-0.468,8.75-1.373,12.925c-6.06,28.241-31.562,49.485-62.015,49.485H66.263
	c-30.453,0-55.955-21.243-62.015-49.485c-0.905-4.175-1.373-8.489-1.373-12.925c0-70.728,58.446-128.272,130.294-128.272H378.83
	C450.678,247.867,509.123,305.41,509.123,376.139z"/>
<path style="fill:#FEDAAA;" d="M507.752,388.288c-6.06,28.684-31.562,50.261-62.015,50.261H66.264
	c-30.453,0-55.955-21.577-62.015-50.261c9.161-62.93,63.479-111.412,128.921-111.412h245.661
	C444.271,276.876,498.59,325.357,507.752,388.288z"/>
<path style="fill:#FEC377;" d="M496.087,383.61c-3.854,23.112-24.007,40.794-48.197,40.794H64.107
	c-23.895,0-43.845-17.245-48.044-39.94c12.771-28.999,41.506-66.987,105.382-75.589c1.759-0.234,3.549-0.447,5.369-0.641
	c3.508-0.366,7.097-0.722,10.737-1.047c17.703-1.576,36.829-2.634,56.473-3.284c5.42-0.183,10.88-0.336,16.371-0.458
	c18.465-0.417,37.174-0.508,55.406-0.397c5.603,0.041,11.165,0.092,16.665,0.163c19.919,0.275,38.974,0.763,56.179,1.332
	c5.796,0.193,11.378,0.397,16.716,0.6c26.935,1.047,47.515,2.196,56.87,2.745c3.6,0.214,5.531,0.346,5.531,0.346
	s4.932,1.688,12.446,5.521C448.145,322.887,480.804,344.179,496.087,383.61z"/>
<path d="M380.232,243.775H131.768C59.111,243.775,0,302.886,0,375.544c0,35.35,28.759,64.11,64.11,64.11h383.78
	c35.351,0,64.111-28.76,64.111-64.111C512,302.886,452.889,243.775,380.232,243.775z M447.889,424.402H64.11
	c-26.94,0-48.858-21.918-48.858-48.859c0-45.633,26.374-85.217,64.676-104.326c4.726,2.277,14.411,7.496,23.941,15.993
	c17.153,15.295,25.85,33.633,25.85,54.504h15.252c0-25.227-10.844-48.137-31.362-66.253c-5.347-4.722-10.687-8.531-15.394-11.502
	c10.63-3.203,21.893-4.933,33.554-4.933h19.05c9.644,5.076,51.064,29.889,51.064,81.404h15.252
	c0-28.081-10.726-53.646-31.018-73.932c-2.764-2.763-5.525-5.248-8.202-7.472h45.066c9.644,5.076,51.064,29.889,51.064,81.404
	h15.252c0-28.081-10.726-53.646-31.018-73.932c-2.764-2.763-5.525-5.248-8.202-7.472h45.066
	c9.644,5.076,51.064,29.889,51.064,81.404h15.252c0-28.081-10.726-53.646-31.018-73.932c-2.764-2.763-5.525-5.248-8.202-7.472
	h45.066c9.644,5.076,51.064,29.889,51.064,81.404h15.252c0-28.081-10.726-53.646-31.018-73.932
	c-2.349-2.349-4.698-4.497-6.993-6.456c57.004,7.55,101.137,56.465,101.137,115.5C496.748,402.484,474.831,424.402,447.889,424.402z
	"/>
<g>
	<rect x="306.771" y="393.901" style="fill:#FEDAAA;" width="107.69" height="15.252"/>
	<rect x="435.509" y="393.901" style="fill:#FEDAAA;" width="16.09" height="15.252"/>
</g>
<path d="M244.376,145.494c-5.654,3.99-13.397,9.454-13.397,20.583c0,11.128,7.743,16.592,13.397,20.583
	c5.376,3.794,6.939,5.32,6.939,8.12h15.252c0-11.128-7.743-16.592-13.397-20.582c-5.376-3.794-6.939-5.32-6.939-8.121
	c0-2.801,1.563-4.328,6.939-8.121c5.654-3.99,13.397-9.454,13.397-20.582c0-11.127-7.743-16.591-13.397-20.581
	c-5.376-3.794-6.939-5.319-6.939-8.119c0-2.799,1.563-4.325,6.939-8.119c5.654-3.99,13.397-9.453,13.397-20.581h-15.252
	c0,2.8-1.563,4.325-6.939,8.119c-5.654,3.99-13.397,9.453-13.397,20.581c0,11.127,7.743,16.591,13.397,20.581
	c5.376,3.794,6.939,5.319,6.939,8.119C251.315,140.174,249.752,141.701,244.376,145.494z"/>
<path d="M325.785,165.833c-5.654,3.99-13.397,9.454-13.397,20.582c0,11.128,7.743,16.592,13.397,20.582
	c5.376,3.795,6.939,5.32,6.939,8.121h15.252c0-11.128-7.743-16.592-13.397-20.583c-5.376-3.794-6.939-5.32-6.939-8.12
	c0-2.801,1.563-4.328,6.939-8.121c5.653-3.99,13.397-9.454,13.397-20.582c0-11.127-7.743-16.591-13.397-20.581
	c-5.376-3.793-6.939-5.319-6.939-8.118c0-2.8,1.563-4.325,6.939-8.119c5.653-3.99,13.397-9.454,13.397-20.581h-15.252
	c0,2.8-1.563,4.325-6.939,8.119c-5.654,3.99-13.397,9.454-13.397,20.581s7.743,16.59,13.397,20.58
	c5.376,3.794,6.939,5.319,6.939,8.119C332.724,160.513,331.161,162.039,325.785,165.833z"/>
<path d="M165.533,164.816c-5.654,3.99-13.397,9.454-13.397,20.582c0,11.128,7.743,16.592,13.397,20.582
	c5.376,3.795,6.939,5.32,6.939,8.121h15.252c0-11.128-7.743-16.592-13.397-20.582c-5.376-3.795-6.939-5.32-6.939-8.121
	c0-2.8,1.563-4.327,6.939-8.12c5.654-3.99,13.397-9.454,13.397-20.583c0-11.127-7.743-16.591-13.397-20.581
	c-5.376-3.793-6.939-5.319-6.939-8.118c0-2.8,1.563-4.325,6.939-8.119c5.654-3.99,13.397-9.454,13.397-20.581h-15.252
	c0,2.8-1.563,4.325-6.939,8.119c-5.654,3.99-13.397,9.454-13.397,20.581s7.743,16.59,13.397,20.58
	c5.376,3.794,6.939,5.319,6.939,8.119C172.472,159.496,170.909,161.022,165.533,164.816z"/>
<rect x="401.903" y="217.79" width="15.863" height="15.252"/>
<rect x="431.635" y="138.256" width="15.863" height="15.252"/>
<rect x="381.842" y="96.76" width="15.864" height="15.252"/>
<rect x="105.199" y="138.256" width="15.863" height="15.252"/>
<rect x="63.011" y="210.876" width="15.863" height="15.252"/>
<rect x="93.485" y="72.346" width="15.864" height="15.252"/>
<g>
	<circle style="fill:#FEDAAA;" cx="96.973" cy="381.812" r="18.105"/>
	<circle style="fill:#FEDAAA;" cx="177.321" cy="361.801" r="7.394"/>
	<circle style="fill:#FEDAAA;" cx="242.844" cy="342.97" r="3.813"/>
	<circle style="fill:#FEDAAA;" cx="238.431" cy="403.897" r="7.45"/>
	<circle style="fill:#FEDAAA;" cx="311.57" cy="360.347" r="10.674"/>
	<circle style="fill:#FEDAAA;" cx="388.034" cy="334.337" r="6.186"/>
	<circle style="fill:#FEDAAA;" cx="461.61" cy="373.718" r="10.014"/>
</g>
<g>
</g>
<g>
</g>
<g>
</g>
<g>
</g>
<g>
</g>
<g>
</g>
<g>
</g>
<g>
</g>
<g>
</g>
<g>
</g>
<g>
</g>
<g>
</g>
<g>
</g>
<g>
</g>
<g>
</g>
</svg>
