<?xml version="1.0" encoding="iso-8859-1"?>
<!-- Generator: Adobe Illustrator 19.0.0, SVG Export Plug-In . SVG Version: 6.00 Build 0)  -->
<svg version="1.1" id="Layer_1" xmlns="http://www.w3.org/2000/svg" xmlns:xlink="http://www.w3.org/1999/xlink" x="0px" y="0px"
	 viewBox="0 0 512 512" style="enable-background:new 0 0 512 512;" xml:space="preserve">
<g>
	<path style="fill:#D9CCBC;" d="M53.293,268.665l-24.206-26.188l2.314-4.955c13.602-29.136,55.031-62.825,100.749-81.926
		l8.946-3.737l40.977,181.581l-3.964,3.182c-10.971,8.805-21.896,19.421-27.432,24.966l-5.989,5.999L53.293,268.665z"/>
	<path style="fill:#D9CCBC;" d="M319.627,337.896c-12.734-3.455-44.501-11.49-64.441-11.49c-19.924,0-51.711,8.035-64.452,11.49
		l-8.202,2.224l-19.851-88l-13.779-61.046l-10.227-45.344l4.406-3.141c23.784-16.96,65.693-27.085,112.106-27.085
		c46.412,0,88.321,10.125,112.107,27.085l4.407,3.142l-10.239,45.343l-33.63,149.047L319.627,337.896z"/>
	<path style="fill:#D9CCBC;" d="M444.352,396.489c-22.538,0-45.645-11.456-65.064-32.259l-5.159-5.528l99.201-107.357l5.877,7.701
		c10.496,13.757,23.448,37.405,25.548,71.944c1.743,28.701-13.95,53.092-39.982,62.138c-0.864,0.295-1.711,0.567-2.559,0.827
		c-2.69,0.781-5.342,1.372-7.952,1.777C451.032,396.235,447.698,396.489,444.352,396.489z"/>
	<path style="fill:#D9CCBC;" d="M67.652,396.484c-1.328,0-2.673-0.041-3.996-0.121c-5.719-0.342-11.248-1.431-16.432-3.237
		c-2.568-0.895-5.049-1.944-7.374-3.118c-21.653-10.844-34.152-33.461-32.604-59.016c2.099-34.539,15.052-58.189,25.547-71.945
		l5.878-7.702l53.151,57.529l46.05,49.828l-5.158,5.528C113.301,385.03,90.195,396.484,67.652,396.484z"/>
	<path style="fill:#D9CCBC;" d="M361.324,361.589c-5.87-5.878-17.41-17.074-28.759-26.02l-4.032-3.177l17.747-78.675l23.112-102.411
		l8.907,3.647c46.414,19.009,88.481,52.963,102.299,82.57l2.312,4.954l-58.469,63.271l-57.13,61.838L361.324,361.589z"/>
</g>
<path style="fill:#BFAB92;" d="M173.013,330.273c-10.929,8.772-21.736,19.192-28.097,25.563L95.012,301.82l-35.739-38.68
	c15.356-24.83,49.029-50.332,83.598-66.451l13.707,60.752L173.013,330.273z"/>
<path style="fill:#A58763;" d="M173.013,330.273c-10.929,8.772-21.736,19.192-28.097,25.563L95.012,301.82
	c15.865-16.679,38.212-32.523,61.566-44.379L173.013,330.273z"/>
<path style="fill:#BFAB92;" d="M353.519,189.281l-13.768,61.037l-17.992,79.721c-14.552-3.948-45.987-11.774-66.573-11.774
	c-20.597,0-52.021,7.826-66.583,11.774l-17.981-79.711l-13.779-61.047c23.253-12.517,59.185-19.986,98.343-19.986
	C294.334,169.295,330.267,176.764,353.519,189.281z"/>
<path style="fill:#A58763;" d="M339.751,250.318l-17.992,79.721c-14.552-3.948-45.987-11.774-66.573-11.774
	c-20.597,0-52.021,7.826-66.583,11.774l-17.981-79.711c22.551-8.701,52.479-13.718,84.565-13.718S317.2,241.628,339.751,250.318z"/>
<path style="fill:#BFAB92;" d="M459.831,386.171c-2.178,0.631-4.457,1.15-6.818,1.516c-19.264,2.992-44.206-3.765-67.774-29.013
	l44.969-48.663l24.301-26.306c9.189,13.911,17.931,34.05,19.589,61.424C475.075,361.25,469.773,375.792,459.831,386.171z"/>
<path style="fill:#A58763;" d="M453.013,387.688c-19.264,2.992-44.206-3.765-67.774-29.013l44.969-48.663
	c10.359,13.921,21.268,35.607,23.151,66.532C453.593,380.361,453.471,384.085,453.013,387.688z"/>
<path style="fill:#BFAB92;" d="M126.762,358.675c-21.513,23.049-44.175,30.681-62.615,29.562c-5.108-0.305-9.891-1.282-14.247-2.798
	c-2.218-0.773-4.345-1.669-6.381-2.697c-5.119-8.965-7.632-19.671-6.93-31.19c1.852-30.458,12.466-51.97,22.693-65.901l26.56,28.748
	L126.762,358.675z"/>
<path style="fill:#A58763;" d="M126.762,358.675c-21.513,23.049-44.175,30.681-62.615,29.562c-0.275-2.971-0.326-6.024-0.132-9.138
	c1.801-29.603,11.876-50.739,21.828-64.701L126.762,358.675z"/>
<path style="fill:#BFAB92;" d="M452.168,263.751l-33.704,36.472l-51.38,55.613c-6.625-6.635-18.093-17.686-29.481-26.662
	l16.618-73.666l12.873-57.038C401.541,213.948,435.621,239.002,452.168,263.751z"/>
<path style="fill:#A58763;" d="M418.464,300.223l-51.38,55.613c-6.625-6.635-18.093-17.686-29.481-26.662l16.618-73.666
	C378.288,267.13,401.663,283.167,418.464,300.223z"/>
<path d="M483.209,252.65l7.746-8.384l-1.644-4.4c-9.467-25.332-37.939-53.641-76.162-75.728
	c-11.574-6.689-23.196-12.309-34.517-16.783l0.931-4.124l-3.627-2.988c-24.213-19.95-69.354-31.86-120.753-31.86
	s-96.541,11.91-120.753,31.86l-3.626,2.988l1.065,4.721c-10.847,4.375-21.953,9.794-33.018,16.187
	c-38.222,22.087-66.694,50.396-76.162,75.728l-1.644,4.4l7.746,8.384C16.231,268.391,2.373,293.763,0.139,330.56
	c-1.911,31.478,16.074,59.327,44.754,69.297c6.865,2.386,14.572,3.759,22.822,3.759c21.309,0,46.22-9.166,69.442-33.683l7.536,8.155
	l5.61-5.922c0.185-0.196,12.744-13.401,26.476-25.193l0.504,2.231l7.82-2.32c0.45-0.133,45.313-13.359,70.081-13.359
	c24.742,0,69.63,13.226,70.081,13.359l7.82,2.319l0.766-3.396c14.251,12.068,27.655,26.157,27.846,26.36l5.61,5.92l7.534-8.154
	c23.223,24.52,48.132,33.684,69.443,33.684c8.248,0,15.96-1.374,22.822-3.759c28.68-9.971,46.665-37.819,44.754-69.297
	C509.627,293.763,495.769,268.391,483.209,252.65z M49.906,385.44c-22.492-7.819-36.045-28.997-34.53-53.954
	c1.921-31.649,13.311-53.628,23.888-67.502l87.496,94.696C99.284,388.109,69.947,392.408,49.906,385.44z M144.918,355.84
	L38.776,240.962c13.618-29.161,55.472-60.703,96.515-77.854l37.721,167.166C162.085,339.041,151.276,349.47,144.918,355.84z
	 M321.76,330.04c-14.556-3.952-45.984-11.78-66.577-11.78c-20.593,0-52.021,7.828-66.577,11.78l-40.803-180.824
	c22.236-15.853,62.706-25.57,107.381-25.57c44.674,0,85.144,9.717,107.38,25.57L321.76,330.04z M367.081,355.84
	c-6.627-6.64-18.086-17.687-29.477-26.667l37.613-166.688c41.515,17.004,84.224,48.962,98.006,78.477L367.081,355.84z
	 M462.095,385.44c-20.041,6.968-49.378,2.669-76.855-26.76l87.496-94.696c10.577,13.874,21.966,35.853,23.888,67.502
	C498.14,356.443,484.586,377.62,462.095,385.44z"/>
<g>
	<path style="fill:#FFFFFF;" d="M449.245,236.017c-21.359-26.436-36.514-37.849-37.148-38.322l-9.131,12.232
		c0.131,0.099,12.4,9.405,30.132,30.495l-19.574,20.362l11.005,10.578l28.947-30.112L449.245,236.017z"/>
	
		<rect x="400.224" y="272.423" transform="matrix(0.721 0.6929 -0.6929 0.721 306.1975 -205.1408)" style="fill:#FFFFFF;" width="15.264" height="10.524"/>
	<path style="fill:#FFFFFF;" d="M483.475,336.927l-15.253-0.582c0.04-1.036,0.026-2.102-0.039-3.172
		c-0.545-8.977-2.102-17.567-4.63-25.535l14.55-4.616c2.906,9.164,4.696,18.997,5.317,29.226
		C483.515,333.818,483.534,335.392,483.475,336.927z"/>
	<path style="fill:#FFFFFF;" d="M471.834,364.228l-10.667-10.918c0.226-0.221,0.447-0.446,0.663-0.676
		c2.149-2.285,3.794-5.02,4.887-8.128l14.4,5.061c-1.802,5.131-4.553,9.684-8.174,13.53
		C472.58,363.484,472.21,363.861,471.834,364.228z"/>
	<path style="fill:#FFFFFF;" d="M38.468,362.457c-3.382-3.767-5.958-8.175-7.658-13.1l14.43-4.979
		c1.031,2.988,2.575,5.64,4.587,7.882L38.468,362.457z"/>
	<path style="fill:#FFFFFF;" d="M43.756,335.114l-15.264-0.018c0.001-0.938,0.031-1.896,0.089-2.845
		c0.712-11.729,2.954-22.901,6.663-33.204l14.362,5.171c-3.218,8.937-5.164,18.68-5.788,28.958
		C43.778,333.824,43.757,334.476,43.756,335.114z"/>
	<path style="fill:#FFFFFF;" d="M79.658,240.171c17.832-20.749,30.146-29.936,30.449-30.159l-8.988-12.338
		c-0.639,0.466-15.918,11.715-37.561,37.918l-4.285,5.189l28.62,30.422l11.118-10.459L79.658,240.171z"/>
	
		<rect x="99.207" y="270.044" transform="matrix(0.6852 0.7284 -0.7284 0.6852 235.1421 11.3258)" style="fill:#FFFFFF;" width="10.525" height="15.265"/>
	<polygon style="fill:#FFFFFF;" points="182.221,163.92 167.289,167.088 187.244,254.223 202.177,251.055 	"/>
	
		<rect x="192.68" y="263.357" transform="matrix(0.2075 0.9782 -0.9782 0.2075 422.4763 20.4843)" style="fill:#FFFFFF;" width="11.832" height="15.264"/>
	
		<rect x="257.597" y="277.068" transform="matrix(0.2075 0.9782 -0.9782 0.2075 487.3352 -32.1539)" style="fill:#FFFFFF;" width="11.832" height="15.264"/>
	
		<rect x="122.96" y="235.884" transform="matrix(-0.9782 0.2075 -0.2075 -0.9782 308.5156 451.2376)" style="fill:#FFFFFF;" width="15.264" height="11.832"/>
	
		<rect x="383.107" y="220.177" transform="matrix(0.2075 0.9782 -0.9782 0.2075 531.1483 -200.0178)" style="fill:#FFFFFF;" width="11.832" height="15.264"/>
	
		<rect x="243.97" y="180.289" transform="matrix(-0.9782 0.2075 -0.2075 -0.9782 536.3668 316.1473)" style="fill:#FFFFFF;" width="15.264" height="11.832"/>
	
		<rect x="75.718" y="334.838" transform="matrix(-0.2075 -0.9782 0.9782 -0.2075 -236.4432 493.3914)" style="fill:#FFFFFF;" width="11.831" height="15.264"/>
	
		<rect x="138.919" y="305.694" transform="matrix(0.9782 -0.2076 0.2076 0.9782 -61.4982 37.2133)" style="fill:#FFFFFF;" width="15.264" height="11.831"/>
	
		<rect x="307.242" y="208.804" transform="matrix(-0.9782 0.2075 -0.2075 -0.9782 667.449 359.4248)" style="fill:#FFFFFF;" width="15.264" height="11.829"/>
	
		<rect x="425.465" y="339.557" transform="matrix(0.2075 0.9782 -0.9782 0.2075 681.4973 -146.8463)" style="fill:#FFFFFF;" width="11.832" height="15.264"/>
	
		<rect x="365.174" y="295.972" transform="matrix(0.2075 0.9782 -0.9782 0.2075 591.0808 -122.4077)" style="fill:#FFFFFF;" width="11.829" height="15.264"/>
</g>
<g>
</g>
<g>
</g>
<g>
</g>
<g>
</g>
<g>
</g>
<g>
</g>
<g>
</g>
<g>
</g>
<g>
</g>
<g>
</g>
<g>
</g>
<g>
</g>
<g>
</g>
<g>
</g>
<g>
</g>
</svg>
