<?xml version="1.0" encoding="iso-8859-1"?>
<!-- Generator: Adobe Illustrator 19.0.0, SVG Export Plug-In . SVG Version: 6.00 Build 0)  -->
<svg version="1.1" id="Layer_1" xmlns="http://www.w3.org/2000/svg" xmlns:xlink="http://www.w3.org/1999/xlink" x="0px" y="0px"
	 viewBox="0 0 512 512" style="enable-background:new 0 0 512 512;" xml:space="preserve">
<path style="fill:#99A0A4;" d="M49.486,422.923V174.007c-23.302-0.281-42.172-19.323-42.172-42.692V81.598
	c0-23.542,19.153-42.695,42.695-42.695h337.701c29.385,0,55.218,18.792,64.283,46.763c2.17,6.69,3.271,13.687,3.271,20.789
	c0,37.249-30.304,67.553-67.553,67.553H184.592v248.915L49.486,422.923L49.486,422.923z"/>
<g>
	<rect x="338.077" y="172.962" style="fill:#E5E9EA;" width="31.305" height="79.12"/>
	<rect x="312.341" y="251.037" style="fill:#E5E9EA;" width="82.787" height="31.19"/>
</g>
<path style="fill:#4A8EA5;" d="M359.34,422.925c-7.685,0-15.344-0.846-22.763-2.514c-22.641-5.081-43.216-17.875-57.933-36.024
	c-14.939-18.422-23.166-41.621-23.166-65.325v-37.878h207.726v37.878c0,27.703-10.815,53.775-30.451,73.412
	C413.115,412.111,387.044,422.925,359.34,422.925z"/>
<rect x="7.314" y="421.878" style="fill:#ABB2B7;" width="497.371" height="51.221"/>
<polygon style="fill:#CCD6DB;" points="361.023,181.323 361.023,200.34 354.795,200.34 354.795,243.725 346.436,243.725 
	346.436,181.323 "/>
<path style="fill:#6DA7C0;" d="M454.844,313.785v5.277c0,26.331-10.71,50.207-28.003,67.5c-17.293,17.293-41.169,28.003-67.5,28.003
	c-7.189,0-14.19-0.794-20.929-2.309c-18.16-17.398-29.477-41.88-29.477-68.942l0,0c0-16.308,13.22-29.529,29.529-29.529
	L454.844,313.785L454.844,313.785z"/>
<path style="fill:#CCD6DB;" d="M444.04,88.244c-1.024,3.156-2.299,6.196-3.824,9.101c-9.885,18.934-29.706,31.89-52.506,31.89
	H176.232v7.837c0,32.663-26.572,59.235-59.235,59.235c-31.598,0-57.501-24.869-59.152-56.059v-11.013h-7.837
	c-18.108,0-32.987-14.085-34.241-31.88c-0.063-0.805-0.094-1.63-0.094-2.456V81.598c0-18.934,15.402-34.335,34.335-34.335h337.701
	C413.999,47.263,436.339,64.483,444.04,88.244z"/>
<path style="fill:#ABB2B7;" d="M440.215,97.345c-9.885,18.934-29.706,31.89-52.506,31.89H176.232v7.837
	c0,32.663-26.572,59.235-59.235,59.235c-31.598,0-57.501-24.869-59.152-56.059v-11.013h-7.837c-18.108,0-32.987-14.085-34.241-31.88
	c1.254-17.795,16.133-31.89,34.241-31.89h337.701C410.499,65.465,430.331,78.411,440.215,97.345z"/>
<path style="fill:#99A0A4;" d="M145.147,106.08c0,14.649-11.88,26.53-26.53,26.53c-10.188,0-19.038-5.747-23.489-14.179
	c-1.944-3.688-3.041-7.889-3.041-12.351c0-14.649,11.88-26.52,26.53-26.52c4.451,0,8.662,1.097,12.34,3.041
	C139.4,87.042,145.147,95.882,145.147,106.08z"/>
<path style="fill:#CCD6DB;" d="M133.998,94.942c0,14.649-11.87,26.53-26.52,26.53c-4.462,0-8.662-1.097-12.351-3.041
	c-1.944-3.688-3.041-7.889-3.041-12.351c0-14.649,11.88-26.52,26.53-26.52c4.451,0,8.662,1.097,12.34,3.041
	C132.901,86.279,133.998,90.49,133.998,94.942z"/>
<path style="fill:#ABB2B7;" d="M176.232,262.512v152.054H96.371V288.749c6.552,1.881,13.469,2.894,20.626,2.894
	C141.072,291.644,162.523,280.212,176.232,262.512z"/>
<path d="M470.517,319.065v-45.196h-68.073v-30.146h-25.745v-62.401h11.01c41.283,0,74.869-33.586,74.869-74.868
	s-33.586-74.868-74.868-74.868H50.008C22.433,31.585,0,54.019,0,81.593v49.721c0,24.908,18.307,45.621,42.171,49.393v233.86H0
	v65.847h512v-65.847h-95.806C448.7,395.144,470.517,359.607,470.517,319.065z M454.843,289.542v29.523
	c0,52.66-42.842,95.503-95.503,95.503l0,0c-52.661,0-95.503-42.843-95.503-95.503v-29.523h41.186h97.421L454.843,289.542
	L454.843,289.542z M302.486,414.567H191.909V181.322h138.859v62.401h-25.745v30.146h-56.859v45.196
	C248.163,359.607,269.98,395.144,302.486,414.567z M386.77,259.396v14.473h-66.074v-14.473h10.072h45.931H386.77z M346.441,243.722
	v-62.401h14.584v62.401H346.441z M15.673,131.314V81.593c0-18.933,15.402-34.334,34.334-34.334h337.701
	c32.641,0,59.195,26.555,59.195,59.195s-26.555,59.195-59.196,59.195h-11.01h-45.931H176.236v7.837
	c0,32.666-26.575,59.239-59.238,59.239c-31.6,0-57.497-24.871-59.152-56.065v-11.012h-7.837
	C31.075,165.649,15.673,150.247,15.673,131.314z M176.236,219.259v195.308H57.845V219.37c13.717,17.643,35.124,29.027,59.152,29.027
	C141.075,248.398,162.521,236.967,176.236,219.259z M496.327,430.241v34.5H15.673v-34.5h26.498h149.738H496.327z"/>
<path d="M118.617,144.002c18.221,0,33.477-12.92,37.098-30.079h198.019V98.249H155.715c-3.621-17.159-18.877-30.081-37.098-30.081
	S85.139,81.089,81.519,98.249H46.478v15.673h35.041C85.14,131.081,100.396,144.002,118.617,144.002z M118.617,83.842
	c12.265,0,22.244,9.979,22.244,22.244c0,12.264-9.979,22.243-22.244,22.243s-22.244-9.979-22.244-22.243
	C96.373,93.82,106.352,83.842,118.617,83.842z"/>
<g>
	<rect x="144.677" y="265.206" style="fill:#CCD6DB;" width="15.673" height="85.744"/>
	<rect x="144.677" y="366.989" style="fill:#CCD6DB;" width="15.673" height="14.194"/>
</g>
<rect x="429.578" y="231.131" width="16.301" height="15.673"/>
<rect x="258.853" y="236.063" width="16.301" height="15.673"/>
<rect x="292.634" y="196.305" width="16.301" height="15.673"/>
<rect x="223.138" y="198.123" width="16.301" height="15.673"/>
<rect x="483.223" y="203.327" width="16.301" height="15.673"/>
<rect x="444.761" y="172.659" width="16.301" height="15.673"/>
<g>
	<rect x="337.439" y="305.215" style="fill:#9ED3E5;" width="65.369" height="15.673"/>
	<rect x="419.673" y="305.215" style="fill:#9ED3E5;" width="15.55" height="15.673"/>
</g>
<g>
	<circle style="fill:#FFFFFF;" cx="117.906" cy="96.308" r="8.914"/>
	<circle style="fill:#FFFFFF;" cx="109.672" cy="113.56" r="4.458"/>
</g>
<polygon style="fill:#99A0A4;" points="496.327,430.239 496.327,447.49 96.371,447.49 96.371,464.741 15.673,464.741 
	15.673,430.239 "/>
<circle style="fill:#9ED3E5;" cx="371.9" cy="369.622" r="36.279"/>
<polygon style="fill:#CCD6DB;" points="386.769,259.398 386.769,266.629 335.621,266.629 335.621,273.87 320.7,273.87 
	320.7,259.398 "/>
<g>
</g>
<g>
</g>
<g>
</g>
<g>
</g>
<g>
</g>
<g>
</g>
<g>
</g>
<g>
</g>
<g>
</g>
<g>
</g>
<g>
</g>
<g>
</g>
<g>
</g>
<g>
</g>
<g>
</g>
</svg>
